<svg xmlns="http://www.w3.org/2000/svg" viewBox="0 -0.5 16 15" shape-rendering="crispEdges">

<path stroke="#444444" d="M2 0h1" />
<path stroke="#42403e" d="M3 0h1M2 1h1" />
<path stroke="#3f3c38" d="M4 0h1M2 2h1" />
<path stroke="#3c3834" d="M5 0h1M4 1h1M3 2h1M2 3h1" />
<path stroke="#383431" d="M6 0h1M4 2h1M2 4h1" />
<path stroke="#33312e" d="M7 0h1M6 1h1M5 2h1M2 5h1" />
<path stroke="#2f2d2b" d="M8 0h1M6 2h1M5 3h1M2 6h1" />
<path stroke="#2a2928" d="M9 0h1M8 1h1M7 2h1M5 4h1M2 7h1" />
<path stroke="#262625" d="M10 0h1M8 2h1" />
<path stroke="#222222" d="M11 0h1M10 1h1M9 2h1M8 3h1" />
<path stroke="#1e1e1e" d="M12 0h1M10 2h1M8 4h1" />
<path stroke="#1a1a1a" d="M13 0h1M12 1h1M11 2h1" />
<path stroke="#151515" d="M14 0h1M12 2h1M11 3h1" />
<path stroke="rgba(0,0,0,0.13725490196078433)" d="M15 0h1M0 12h1M2 14h1M14 14h1" />
<path stroke="#ffffff" d="M3 1h1M5 1h1M7 1h1M9 1h1M11 1h1M13 1h1M1 3h1M3 6h1M5 6h1M7 6h1M9 6h1M11 6h1M13 6h1" />
<path stroke="#111111" d="M14 1h1M13 2h1M11 4h1" />
<path stroke="rgba(0,0,0,0.4196078431372549)" d="M15 1h1" />
<path stroke="#cc9933" d="M1 2h1M0 3h1" />
<path stroke="#0d0d0d" d="M14 2h1" />
<path stroke="rgba(0,0,0,0.5607843137254902)" d="M15 2h1M15 3h1M15 4h1M15 5h1M15 6h1M15 7h1M15 8h1M15 9h1M15 10h1M15 11h1M3 13h11" />
<path stroke="#0066ff" d="M3 3h2M6 3h2M9 3h2M12 3h2" />
<path stroke="#090909" d="M14 3h1" />
<path stroke="#cb9832" d="M0 4h1M2 8h1" />
<path stroke="#fff791" d="M1 4h1M4 8h8" />
<path stroke="#80b3ff" d="M3 4h2M6 4h2M9 4h2M12 4h2" />
<path stroke="#050505" d="M14 4h1" />
<path stroke="#c99630" d="M0 5h1" />
<path stroke="#ffeb85" d="M1 5h1M4 9h8" />
<path stroke="#c5922c" d="M3 5h6M0 7h1M2 9h1" />
<path stroke="#c08d27" d="M9 5h1M0 9h1" />
<path stroke="#bc8923" d="M10 5h1" />
<path stroke="#b8851f" d="M11 5h1M2 11h1" />
<path stroke="#b4811b" d="M12 5h1" />
<path stroke="#b3801a" d="M13 5h2M2 12h1" />
<path stroke="#c7942e" d="M0 6h1" />
<path stroke="#ffe07a" d="M1 6h1M4 10h8" />
<path stroke="#939392" d="M4 6h1" />
<path stroke="#8f8f8f" d="M6 6h1" />
<path stroke="#8a8a8a" d="M8 6h1" />
<path stroke="#868686" d="M10 6h1" />
<path stroke="#827643" d="M12 6h1" />
<path stroke="#a3700a" d="M14 6h1M8 12h1" />
<path stroke="#ffd46e" d="M1 7h1M4 11h8" />
<path stroke="#93935f" d="M3 7h1" />
<path stroke="#91915e" d="M4 7h1" />
<path stroke="#8f8f5c" d="M5 7h1" />
<path stroke="#8d8d5a" d="M6 7h1" />
<path stroke="#8a8a57" d="M7 7h1" />
<path stroke="#888855" d="M8 7h1" />
<path stroke="#868653" d="M9 7h1" />
<path stroke="#848451" d="M10 7h1" />
<path stroke="#82824f" d="M11 7h1" />
<path stroke="#7d6431" d="M12 7h1" />
<path stroke="#80804d" d="M13 7h1" />
<path stroke="#a06d07" d="M14 7h1M9 12h1" />
<path stroke="#c28f29" d="M0 8h1" />
<path stroke="#ffcc66" d="M1 8h1M1 9h1M1 10h1M1 11h1" />
<path stroke="#ffff99" d="M3 8h1M13 8h1M3 9h1M13 9h1M3 10h1M13 10h1M3 11h1M13 11h1" />
<path stroke="#efbc56" d="M12 8h1" />
<path stroke="#9e6b05" d="M14 8h1M10 12h1" />
<path stroke="#e6b34d" d="M12 9h1" />
<path stroke="#9c6903" d="M14 9h1M11 12h1" />
<path stroke="#bd8a24" d="M0 10h1" />
<path stroke="#bf8c26" d="M2 10h1" />
<path stroke="#dca943" d="M12 10h1" />
<path stroke="#9a6701" d="M14 10h1M12 12h1" />
<path stroke="#ba8721" d="M0 11h1" />
<path stroke="#d3a03a" d="M12 11h1" />
<path stroke="#996600" d="M14 11h1M13 12h1" />
<path stroke="#b5821c" d="M1 12h1" />
<path stroke="#b07d17" d="M3 12h1" />
<path stroke="#ae7b15" d="M4 12h1" />
<path stroke="#ab7812" d="M5 12h1" />
<path stroke="#a8750f" d="M6 12h1" />
<path stroke="#a5720c" d="M7 12h1" />
<path stroke="rgba(0,0,0,0.7019607843137254)" d="M14 12h1" />
<path stroke="rgba(0,0,0,0.4666666666666667)" d="M15 12h1M2 13h1M14 13h1" />
<path stroke="rgba(0,0,0,0.043137254901960784)" d="M0 13h1M1 14h1M15 14h1" />
<path stroke="rgba(0,0,0,0.23137254901960785)" d="M1 13h1M15 13h1" />
<path stroke="rgba(0,0,0,0.1843137254901961)" d="M3 14h11" />
</svg>