<svg xmlns="http://www.w3.org/2000/svg" viewBox="0 -0.5 16 16" shape-rendering="crispEdges">

<path stroke="#bdbabd" d="M4 0h2M4 1h1" />
<path stroke="#adaeb5" d="M6 0h3M4 2h1M4 3h1M4 4h1" />
<path stroke="#a5a6a5" d="M9 0h1M4 5h1" />
<path stroke="#a5a69c" d="M10 0h1M4 6h1" />
<path stroke="#94969c" d="M11 0h3M13 1h1M13 2h1M13 3h1M13 4h1M13 5h1M13 6h1" />
<path stroke="#fffbff" d="M5 1h3M9 1h4M5 2h1M12 3h1M2 4h2M5 4h1M1 5h1M5 5h1M3 8h1M5 8h1" />
<path stroke="#fff7f7" d="M8 1h1" />
<path stroke="#737173" d="M14 1h1M14 2h1M14 3h1M14 4h1M14 5h1M14 6h1" />
<path stroke="#089eff" d="M6 2h6" />
<path stroke="#f7ffff" d="M12 2h1M8 4h1M7 5h1M5 6h1" />
<path stroke="#cea621" d="M2 3h2M1 4h1M0 5h1M0 6h1M0 7h1" />
<path stroke="#ffffff" d="M5 3h1M12 4h1M8 5h1M12 5h1M5 10h2" />
<path stroke="#10a2ff" d="M6 3h1" />
<path stroke="#6b7da5" d="M7 3h4M6 4h1M11 4h1M6 5h1M11 5h1M6 6h1M11 6h1" />
<path stroke="#18a2ff" d="M11 3h1" />
<path stroke="#ffaa94" d="M7 4h1M10 4h1" />
<path stroke="#ffbaad" d="M9 4h1M7 6h1" />
<path stroke="#fffb9c" d="M2 5h2M3 9h1M3 12h1M3 13h1M13 13h1" />
<path stroke="#ff8663" d="M9 5h2M9 6h1" />
<path stroke="#fff794" d="M1 6h1" />
<path stroke="#fff38c" d="M2 6h2" />
<path stroke="#ffc7bd" d="M8 6h1" />
<path stroke="#ff7552" d="M10 6h1" />
<path stroke="#f7f7f7" d="M12 6h1" />
<path stroke="#ffeb8c" d="M1 7h1" />
<path stroke="#c69618" d="M2 7h13M0 8h1M2 8h1M14 8h1M0 9h1M2 9h1M14 9h1M0 10h1M2 10h1M14 10h1M0 11h1M2 11h1M14 11h1M0 12h1M2 12h1M14 12h1M0 13h1M2 13h1M14 13h1M2 14h13" />
<path stroke="#ffdb84" d="M1 8h1" />
<path stroke="#d6d3d6" d="M4 8h1" />
<path stroke="#bde3ff" d="M6 8h2M9 8h1" />
<path stroke="#cee7ff" d="M8 8h1M10 8h2" />
<path stroke="#ffefe7" d="M12 8h1M12 10h1" />
<path stroke="#cecfce" d="M13 8h1" />
<path stroke="#947929" d="M15 8h1M15 9h1M15 10h1M15 11h1M15 12h1M15 13h1M15 14h1M2 15h13" />
<path stroke="#ffd373" d="M1 9h1" />
<path stroke="#a5927b" d="M4 9h1M13 9h1M4 10h1M13 10h1M4 11h10" />
<path stroke="#fffff7" d="M5 9h1" />
<path stroke="#84c7ff" d="M6 9h1" />
<path stroke="#7bc3ff" d="M7 9h5" />
<path stroke="#fff7e7" d="M12 9h1M8 10h1M10 10h1" />
<path stroke="#ffcb6b" d="M1 10h1M1 11h1M1 12h1" />
<path stroke="#ffff9c" d="M3 10h1M3 11h1M13 12h1" />
<path stroke="#efebe7" d="M7 10h1M11 10h1" />
<path stroke="#eff7ef" d="M9 10h1" />
<path stroke="#ffe77b" d="M4 12h1" />
<path stroke="#e7be4a" d="M5 12h1" />
<path stroke="#deba52" d="M6 12h6" />
<path stroke="#deb242" d="M12 12h1" />
<path stroke="#ffcb63" d="M1 13h1" />
<path stroke="#ffd76b" d="M4 13h4M10 13h1" />
<path stroke="#ffd36b" d="M8 13h2M11 13h1" />
<path stroke="#d6ae31" d="M12 13h1" />
<path stroke="#ad8618" d="M1 14h1" />
</svg>